# xmcd
#
# Track frame offsets:
#	150
#	13120
#	23311
#	34867
#	44877
#	56142
#	66960
#	77067
#	88693
#	98856
#	109169
#	121714
#	134712
#	147142
#	158151
#	171581
#	182713
#	194046
#	204056
#	215173
#	227858
#	239484
#	250100
#	262736
#
# Disc length: 3642 seconds
#
# Revision: 1
# Processed by: cddbd v1.5.2PL0 Copyright (c) Steve Scherf et al.
# Submitted via: audiograbber 1.83.01
#
DISCID=5e0e3818
DTITLE=CD-Compilation - 24 songs that inspired the teenage Gram Parsons
DYEAR=2010
DGENRE=Country
TTITLE0=Flatt and Scruggs - DIM LIGHTS THICK SMOKE
TTITLE1=Joe Ken Clark and His Merry Mountain Boys - HO! HO! LOVE 'EM JOE
TTITLE2=Leone Payne - CRAZY ARMS
TTITLE3=Benny Barnes - CONSCIENCE I'M GUILTY
TTITLE4=George Jones - HEARTS IN MY DREAM
TTITLE5=Stonewall Jackson - LIFE TO GO
TTITLE6=Jimmy Blakely - LOVESICK BLUES
TTITLE7=Lonnie Irving - AN OLD FASHIONED LOVE
TTITLE8=The Louvin Brothers - THE CHRISTIAN LIFE
TTITLE9=Harry And Jeany West - WHAT ARE THEY DOING IN HEAVEN TODAY
TTITLE10=Bailes Brothers - DOWN THE VALLEY OF THE SHADOW
TTITLE11=Delmore Brothers - THE WRATH OF GOD
TTITLE12=Bradley Kincaid - LIFE`S RAILWAY TO HEAVEN
TTITLE13=Harry And Jeanie West - I'M ONLY ON A JOURNEY HERE
TTITLE14=Cowboy Copas - FROM THE MANGER TO THE CROSS
TTITLE15=Asher Sizemore And Little Jimmie - BY THE GRAVE OF NOBODY S DARLING
TTITLE16=Buck Owens - PLEASE DON'T TAKE HER FROM ME
TTITLE17=Skeeter Davis  - SET HIM FREE
TTITLE18=Hank Snow - I CAN'T CONTROL MY HEART
TTITLE19=Red Hayes - A SATISFIED MIND
TTITLE20=Tibby Edwards - BUT I DO
TTITLE21=Frankie Miller  - MAYBE YOU WOULD LOVE ME THEN
TTITLE22=Harry Coates - I'VE QUIT CATTING AROUND
TTITLE23=Lefty Frizell - MAMA
EXTD=www.righteous.com
EXTT0=
EXTT1=
EXTT2=
EXTT3=
EXTT4=
EXTT5=
EXTT6=
EXTT7=
EXTT8=
EXTT9=
EXTT10=
EXTT11=
EXTT12=
EXTT13=
EXTT14=
EXTT15=
EXTT16=
EXTT17=
EXTT18=
EXTT19=
EXTT20=
EXTT21=
EXTT22=
EXTT23=
PLAYORDER=
